<?xml version="1.0" encoding="UTF-8"?> <svg xmlns="http://www.w3.org/2000/svg" width="134" height="40" viewBox="0 0 134 40" fill="none"><g clip-path="url(#clip0_2094_79)"><path d="M73.4492 7.60403C75.0453 6.0269 76.9201 4.80744 79.0792 3.94283C81.2384 3.07822 83.5748 2.64733 86.0886 2.64733C88.3772 2.64733 90.5448 3.01345 92.5913 3.74569C94.6378 4.47793 96.5041 5.66922 98.1931 7.3224L99.9948 5.46363C98.2691 3.62459 96.1945 2.25305 93.7736 1.35183C91.3527 0.450609 88.7544 0 85.976 0C83.0484 0 80.346 0.498486 77.8688 1.49264C75.3916 2.4868 73.224 3.8865 71.3661 5.68894C69.5082 7.49137 68.0726 9.6036 67.0592 12.0256C66.0458 14.4477 65.5391 17.1034 65.5391 19.9958C65.5391 22.8881 66.0458 25.5439 67.0592 27.9659C68.0726 30.3879 69.4998 32.5002 71.338 34.3026C73.1762 36.105 75.3437 37.5047 77.8406 38.4989C80.3376 39.4931 83.0484 39.9916 85.976 39.9916C88.7544 39.9916 91.3527 39.5325 93.7736 38.6116C96.1945 37.6906 98.2691 36.3106 99.9948 34.4716L98.1931 32.6128C96.5041 34.3026 94.6378 35.5136 92.5913 36.2459C90.5448 36.9781 88.3772 37.3442 86.0886 37.3442C83.5748 37.3442 81.2384 36.9133 79.0792 36.0487C76.9201 35.1841 75.0453 33.9647 73.4492 32.3875C71.8531 30.8104 70.6145 28.9713 69.7334 26.8676C68.8523 24.7638 68.4104 22.4741 68.4104 19.9958C68.4104 17.5174 68.8523 15.2278 69.7334 13.124C70.6145 11.0202 71.8531 9.18116 73.4492 7.60403Z" fill="white"></path><path d="M132.649 24.6145C131.748 23.3387 130.566 22.3249 129.102 21.5729C127.638 20.821 126.042 20.2126 124.316 19.7423C122.591 19.272 120.845 18.8326 119.08 18.4186C117.315 18.0046 115.702 17.4977 114.239 16.8978C112.775 16.298 111.601 15.4897 110.72 14.4758C109.839 13.4619 109.397 12.1101 109.397 10.4203C109.397 8.95585 109.791 7.63219 110.579 6.44934C111.367 5.26649 112.586 4.3174 114.239 3.60487C115.891 2.89235 117.974 2.53468 120.488 2.53468C122.253 2.53468 124.083 2.80786 125.977 3.3514C127.872 3.89495 129.645 4.73139 131.298 5.85792L132.367 3.54855C130.867 2.45864 129.054 1.59685 126.934 0.957544C124.815 0.318243 122.664 0 120.488 0C117.259 0 114.613 0.487221 112.55 1.46448C110.486 2.44174 108.966 3.71752 107.989 5.29466C107.013 6.87179 106.526 8.59818 106.526 10.4767C106.526 12.541 106.967 14.2223 107.849 15.5178C108.73 16.8133 109.904 17.8357 111.367 18.5876C112.831 19.3396 114.444 19.9479 116.209 20.4182C117.974 20.8885 119.719 21.3279 121.445 21.7419C123.171 22.1559 124.767 22.6628 126.231 23.2627C127.694 23.8626 128.877 24.6708 129.777 25.6847C130.678 26.6986 131.129 28.0504 131.129 29.7402C131.129 31.1681 130.726 32.4636 129.918 33.6267C129.11 34.7898 127.872 35.7192 126.202 36.4148C124.533 37.1105 122.382 37.4569 119.756 37.4569C117.13 37.4569 114.641 36.9781 112.296 36.0206C109.951 35.063 108.102 33.8886 106.751 32.5002L105.456 34.6406C106.883 36.2177 108.899 37.5047 111.508 38.4989C114.118 39.4931 116.885 39.9916 119.812 39.9916C123.078 39.9916 125.752 39.5128 127.835 38.5552C129.918 37.5977 131.466 36.3219 132.48 34.7251C133.493 33.1282 134 31.4103 134 29.5712C134 27.5435 133.55 25.8903 132.649 24.6145Z" fill="white"></path><path d="M59.3798 23.9471C58.3861 22.446 56.9307 21.2998 55.0165 20.5112C54.1495 20.1536 53.198 19.8832 52.1677 19.6861C52.4746 19.5847 52.7786 19.4776 53.0742 19.3565C54.8561 18.6243 56.2551 17.5259 57.2685 16.0615C58.2819 14.597 58.7886 12.7945 58.7886 10.6542C58.7886 7.38724 57.5866 4.88918 55.1854 3.16278C52.7842 1.43638 49.4625 0.571777 45.2203 0.571777H34.6246H31.6407L17.3967 23.7894L3.15281 0.571777H0L15.8766 26.4508V40.0001H18.748V26.4508L33.1045 3.05013H45.1077C48.5223 3.05013 51.1684 3.70633 53.046 5.02154C54.9236 6.33676 55.861 8.28846 55.861 10.8795C55.861 13.4705 54.9236 15.4785 53.046 16.7937C51.1684 18.1089 48.5223 18.7651 45.1077 18.7651H37.2031V21.2435H46.3463C50.1381 21.2435 53.0263 21.8912 55.0165 23.1867C57.0067 24.4822 58.0004 26.5381 58.0004 29.3544C58.0004 32.1707 57.0067 34.283 55.0165 35.5785C53.0263 36.874 50.1381 37.5217 46.3463 37.5217H33.0426V40.0001H46.3463C51.2247 40.0001 54.8673 39.0904 57.2685 37.2683C59.6697 35.4461 60.8717 32.8833 60.8717 29.5797C60.8717 27.3267 60.3735 25.4482 59.3798 23.9471Z" fill="white"></path></g><defs><clipPath id="clip0_2094_79"><rect width="134" height="40" fill="white"></rect></clipPath></defs></svg> 