<?xml version="1.0" encoding="UTF-8"?> <svg xmlns="http://www.w3.org/2000/svg" width="146" height="36" viewBox="0 0 146 36" fill="none"><g clip-path="url(#clip0_2008_1029)"><path d="M13.3049 19.0547H8.31969L10.9748 10.4426L13.3049 19.0547ZM5.73394 28.5455L7.43586 22.8743H14.1522L15.7446 28.531H21.9533L15.7848 6.96438C15.4196 5.68999 14.6526 5.10181 13.3049 5.10181H4.4995V7.13865H5.22994C6.15029 7.13865 6.64699 7.50172 6.64699 8.1952C6.64699 8.6563 6.54473 9.04116 6.17951 10.0904L0 28.5455H5.73394Z" fill="#4F5A7A"></path><path d="M29.1371 28.5455V6.89902C29.1371 5.76986 28.4724 5.10181 27.3731 5.10181H21.9131V7.13865H22.2783C23.195 7.13865 23.5858 7.52714 23.5858 8.44935V28.5455H29.1371Z" fill="#4F5A7A"></path><path d="M38.5744 28.5455V6.89902C38.5744 5.76986 37.8988 5.10181 36.8068 5.10181H31.365V7.13865H31.7302C32.6506 7.13865 33.0413 7.52714 33.0413 8.44935V28.5455H38.5744Z" fill="#4F5A7A"></path><path d="M48.2564 7.24031C48.2564 5.6682 47.0841 4.69879 45.0754 4.69879C43.0667 4.69879 41.887 5.65005 41.887 7.24031C41.887 8.83057 43.0959 9.78183 45.0754 9.78183C47.0549 9.78183 48.2564 8.83783 48.2564 7.24031ZM48.1505 28.5455V12.7663C48.1505 11.6408 47.4785 10.9763 46.3792 10.9763H41.0068V12.9732H41.3246C42.2413 12.9732 42.6321 13.3944 42.6321 14.3094V28.5455H48.1505Z" fill="#4F5A7A"></path><path d="M60.3054 20.1076V23.5242C59.3814 24.4718 58.2565 25.0527 57.3033 25.0527C56.3501 25.0527 55.9593 24.5662 55.9593 23.2373C55.9593 21.9085 56.2369 21.3457 57.2303 20.9645C58.2194 20.5642 59.2511 20.2767 60.3054 20.1076ZM52.8403 16.0049C54.5368 15.1682 56.3932 14.7003 58.2858 14.6325C59.7758 14.6325 60.3054 15.1589 60.3054 16.6947V17.0869C58.0447 17.4499 57.3362 17.5879 56.0616 17.8675C55.3477 18.0238 54.6487 18.2412 53.9725 18.5174C51.741 19.4069 50.6855 21.1206 50.6855 23.7529C50.6855 27.0932 52.1464 28.7052 55.1376 28.7052C56.155 28.7094 57.164 28.5208 58.1105 28.1497C58.969 27.7612 59.7672 27.2526 60.4807 26.6393V26.8862C60.4807 27.9754 61.0432 28.5309 62.1425 28.5309H67.2008V26.6538H66.9524C65.9992 26.6538 65.6486 26.2291 65.6486 25.1072V16.7383C65.6486 12.2761 64.0891 10.7222 59.5932 10.7222C58.168 10.7292 56.748 10.8961 55.3604 11.2196C54.0493 11.5102 52.7864 11.9845 51.6096 12.6283L52.8403 16.0049Z" fill="#4F5A7A"></path><path d="M75.2531 28.5455V16.6657C76.1771 15.6455 77.1266 15.1844 78.2223 15.1844C79.3946 15.1844 79.6832 15.6455 79.6832 17.4136V28.5455H85.198V16.6003C85.198 13.8192 84.9971 12.9406 84.1023 11.9966C83.3719 11.1797 82.2287 10.7657 80.7715 10.7657C78.6131 10.7657 77.0938 11.4302 75.0522 13.329V12.6283C75.0522 11.5391 74.4788 10.9763 73.3503 10.9763H68.1094V12.9732H68.4271C69.3438 12.9732 69.7382 13.3944 69.7382 14.3093V28.5455H75.2531Z" fill="#4F5A7A"></path><path d="M101.556 24.8566H93.8613L101.22 14.5998V10.9691H89.6796C88.3721 10.9691 87.7695 11.5645 87.7695 12.8679V16.063H89.8183V15.7507C89.8183 14.9411 90.242 14.5562 91.1222 14.5562H95.0884L87.6526 24.9292V28.56H101.531L101.556 24.8566Z" fill="#4F5A7A"></path><path d="M130.508 28.0989V8.23512C130.508 6.65212 129.942 6.1184 128.397 6.1184H123.718V8.35131H123.999C125.066 8.35131 125.274 8.59094 125.274 9.86896V28.0989H130.508ZM132.816 28.0989H138.009V12.6283C138.009 11.0744 137.407 10.5152 135.884 10.5152H132.816V28.0989ZM122.981 28.0989V10.5298H119.902C118.379 10.5298 117.783 11.0889 117.783 12.6428V28.0989H122.981ZM142.925 18.0018C142.925 26.7555 136.592 33.1202 127.896 33.1202C119.201 33.1202 112.853 26.7555 112.853 18.0018C112.853 9.2481 119.197 2.88342 127.896 2.88342C136.596 2.88342 142.925 9.28441 142.925 18.0018ZM146 18.0018C146 7.70867 138.254 0.000610352 127.896 0.000610352C117.539 0.000610352 109.785 7.70867 109.785 18.0018C109.785 28.295 117.531 35.9994 127.896 35.9994C138.261 35.9994 146 28.3204 146 18.0018Z" fill="#4F5A7A"></path></g><defs><clipPath id="clip0_2008_1029"><rect width="146" height="36" fill="white"></rect></clipPath></defs></svg> 