<?xml version="1.0" encoding="UTF-8"?> <svg xmlns="http://www.w3.org/2000/svg" width="130" height="37" viewBox="0 0 130 37" fill="none"><path d="M54.2641 28.8425H59.1772C61.9196 28.8425 65.7279 28.3746 65.7279 24.4455C65.7279 21.3131 63.7003 20.2162 59.3851 20.2162H54.2641V28.8425ZM54.2641 15.6515H59.1382C62.6865 15.6515 64.4541 14.1295 64.4541 11.8848C64.4541 9.30615 62.6865 8.0415 58.6703 8.0415H54.2641V15.6515ZM48.9482 3.47681H60.6069C65.13 3.47681 69.783 5.5434 69.783 11.001C69.783 14.3829 67.6645 16.6224 64.5841 17.5504V17.6375C68.3533 18.0586 71.0568 21.0181 71.0568 24.8666C71.0568 31.3757 65.3899 33.4072 59.7231 33.4072H48.9482V3.47681ZM95.4139 10.4941C93.2174 8.16887 91.1898 7.5333 89.1102 7.5333C82.9364 7.5333 78.8422 12.2708 78.8422 18.2263C78.8422 24.6132 82.9364 29.3455 89.1102 29.3455C91.5277 29.3455 93.8412 28.2486 95.8298 25.7102L100.236 28.8425C97.5325 32.5637 93.4643 34.1689 89.0712 34.1689C79.856 34.1689 73.2534 27.908 73.2534 18.5668C73.2534 8.97081 79.856 2.71516 89.0712 2.71516C93.1264 2.71516 96.5967 4.0253 99.5601 7.44752L95.4139 10.4941ZM101.549 3.47161H107.683L115.833 26.091L124.255 3.47161H130L117.912 33.4072H113.298L101.549 3.47161Z" fill="#4F5A7A"></path><path d="M1.10479 0C0.480912 0 0 0.506898 0 1.13727V35.7429C0 36.368 0.480912 36.8801 1.10479 36.8801H35.7818C36.4057 36.8801 36.9126 36.368 36.9126 35.7429V1.13727C36.9126 0.506898 36.4057 0 35.7818 0H1.10479ZM2.11858 1.39723H34.7421C35.145 1.39723 35.4829 1.72736 35.4829 2.14457V34.7356C35.4829 35.1567 35.158 35.5154 34.7421 35.5154H2.11858C1.68967 35.5154 1.36475 35.1567 1.36475 34.7356V2.14457C1.36475 1.72736 1.68967 1.39723 2.11858 1.39723ZM24.7471 19.4948C24.1232 18.4641 24.1362 18.4186 24.7861 17.3827C25.4359 16.352 32.7665 4.48801 33.0394 4.0149C33.3643 3.48201 33.0004 3.23896 32.6235 3.23896H18.2874C16.4937 3.23896 16.4807 3.23375 15.8048 4.36583C15.116 5.4979 8.25336 16.612 7.73347 17.4542C7.10959 18.4797 7.10959 18.4849 7.73347 19.4948C8.35734 20.5164 15.116 31.5031 15.8048 32.6352C16.4807 33.762 16.4937 33.762 18.2874 33.762H32.6235C33.0004 33.762 33.3643 33.5138 33.0394 32.9796C32.8444 32.6547 25.3709 20.5307 24.7471 19.4948Z" fill="#4F5A7A"></path></svg> 