<?xml version="1.0" encoding="UTF-8"?> <svg xmlns="http://www.w3.org/2000/svg" width="135" height="30" viewBox="0 0 135 30" fill="none"><path d="M125.604 23.9008C125.604 21.9565 127.148 20.379 129.049 20.379C130.951 20.379 132.493 21.9565 132.493 23.9008C132.493 25.8451 130.951 27.4215 129.049 27.4215C127.148 27.4215 125.604 25.8451 125.604 23.9008Z" fill="#4F5A7A"></path><path d="M15.7302 14.5741C15.7302 12.3435 15.3085 10.6886 14.4652 9.61046C13.6208 8.53335 12.3417 7.9953 10.6222 7.9953H8.79293V21.636H10.1924C12.1025 21.636 13.5021 21.0572 14.3933 19.8955C15.2835 18.7359 15.7302 16.9617 15.7302 14.5741ZM22.2536 14.3418C22.2536 18.4057 21.185 21.5371 19.0477 23.7352C16.9104 25.9342 13.9059 27.0338 10.033 27.0338H2.50757V2.68213H10.5583C14.2926 2.68213 17.1755 3.68179 19.2071 5.6801C21.2378 7.67943 22.2536 10.5653 22.2536 14.3418Z" fill="#4F5A7A"></path><path d="M43.0991 27.0335H49.0874V2.57996H43.0991V27.0335Z" fill="#4F5A7A"></path><path d="M57.4996 17.9122C57.4996 19.4714 57.699 20.6605 58.0968 21.4778C58.4955 22.2961 59.1633 22.7047 60.1024 22.7047C61.0315 22.7047 61.6884 22.2961 62.0712 21.4778C62.454 20.6605 62.6444 19.4714 62.6444 17.9122C62.6444 16.3613 62.451 15.1914 62.0632 14.4017C61.6745 13.6099 61.0117 13.2135 60.0716 13.2135C59.1525 13.2135 58.4955 13.6079 58.0968 14.3925C57.699 15.1782 57.4996 16.3511 57.4996 17.9122ZM68.7394 17.9122C68.7394 20.8827 67.9777 23.2 66.4505 24.861C64.9243 26.523 62.788 27.3545 60.0417 27.3545C57.4079 27.3545 55.3114 26.5046 53.7553 24.8049C52.1972 23.1052 51.4187 20.8083 51.4187 17.9122C51.4187 14.951 52.1814 12.65 53.7086 11.0093C55.2357 9.36871 57.377 8.5484 60.1343 8.5484C61.838 8.5484 63.3453 8.92852 64.6512 9.68769C65.9581 10.4469 66.967 11.5342 67.6757 12.9506C68.3855 14.365 68.7394 16.0199 68.7394 17.9122Z" fill="#4F5A7A"></path><path d="M71.1174 27.0335H77.1067V17.6748V8.86938H71.1174V27.0335Z" fill="#4F5A7A"></path><path d="M71.1172 6.67228H77.1064V2.57886H71.1172V6.67228Z" fill="#4F5A7A"></path><path d="M89.2404 22.4006C90.049 22.4006 91.0118 22.1907 92.1353 21.7739V26.3442C91.3278 26.707 90.5603 26.9668 89.8306 27.1207C89.1009 27.2766 88.2445 27.3541 87.2646 27.3541C85.2539 27.3541 83.8044 26.8374 82.9142 25.8062C82.028 24.7749 81.5834 23.1914 81.5834 21.0545V13.5667H79.4861V8.87097H81.5834V4.23236L87.6186 3.1593V8.87097H91.4396V13.5667H87.6186V20.6366C87.6186 21.8126 88.1598 22.4006 89.2404 22.4006Z" fill="#4F5A7A"></path><path d="M103.102 22.4006C103.91 22.4006 104.873 22.1907 105.997 21.7739V26.3442C105.19 26.707 104.422 26.9668 103.692 27.1207C102.961 27.2766 102.108 27.3541 101.126 27.3541C99.1153 27.3541 97.6659 26.8374 96.7777 25.8062C95.8895 24.7749 95.4449 23.1914 95.4449 21.0545V13.5667H93.3464V8.87097H95.4449V4.16206L101.479 3.1593V8.87097H105.302V13.5667H101.479V20.6366C101.479 21.8126 102.02 22.4006 103.102 22.4006Z" fill="#4F5A7A"></path><path d="M113.553 15.6993C113.635 14.7048 113.914 13.9762 114.388 13.5105C114.865 13.0458 115.453 12.8135 116.156 12.8135C116.924 12.8135 117.534 13.0743 117.987 13.6001C118.442 14.1229 118.68 14.823 118.698 15.6993H113.553ZM121.999 10.6898C120.576 9.26319 118.556 8.54883 115.943 8.54883C113.197 8.54883 111.083 9.36913 109.602 11.0098C108.122 12.6504 107.381 15.0044 107.381 18.0716C107.381 21.0421 108.181 23.3328 109.778 24.9409C111.376 26.5489 113.62 27.3539 116.51 27.3539C117.898 27.3539 119.092 27.2571 120.093 27.0646C121.088 26.874 122.051 26.5295 122.985 26.0322L122.065 21.9388C121.386 22.2221 120.74 22.4402 120.13 22.5839C119.249 22.7928 118.282 22.8977 117.229 22.8977C116.075 22.8977 115.164 22.6093 114.496 22.0326C113.828 21.4548 113.472 20.6579 113.431 19.643H124.135V16.8539C124.135 14.1708 123.424 12.1154 121.999 10.6898Z" fill="#4F5A7A"></path><path d="M30.2014 15.6993C30.2832 14.7048 30.5613 13.9762 31.0357 13.5105C31.5113 13.0458 32.1006 12.8135 32.8054 12.8135C33.571 12.8135 34.181 13.0743 34.6346 13.6001C35.0901 14.1229 35.3264 14.823 35.3474 15.6993H30.2014ZM38.648 10.6898C37.2235 9.26319 35.2047 8.54883 32.591 8.54883C29.8436 8.54883 27.7311 9.36913 26.2507 11.0098C24.7704 12.6504 24.0288 15.0044 24.0288 18.0716C24.0288 21.0421 24.8284 23.3328 26.4273 24.9409C28.0243 26.5489 30.2682 27.3539 33.1582 27.3539C34.5458 27.3539 35.74 27.2571 36.7409 27.0646C37.7358 26.874 38.6989 26.5295 39.634 26.0322L38.7128 21.9388C38.0339 22.2221 37.3879 22.4402 36.7789 22.5839C35.8956 22.7928 34.9296 22.8977 33.8768 22.8977C32.7235 22.8977 31.8115 22.6093 31.1436 22.0326C30.4747 21.4548 30.1198 20.6579 30.079 19.643H40.7833V16.8539C40.7833 14.1708 40.0715 12.1154 38.648 10.6898Z" fill="#4F5A7A"></path></svg> 