<?xml version="1.0" encoding="UTF-8"?> <svg xmlns="http://www.w3.org/2000/svg" width="112" height="36" viewBox="0 0 112 36" fill="none"><g clip-path="url(#clip0_2008_1049)"><path d="M13.7554 0.00299072H14.7486C18.1967 0.0755622 21.5885 1.41813 24.0247 3.79485C23.1252 4.68385 22.2069 5.53657 21.3262 6.42557C19.9582 5.22814 18.3091 4.30285 16.5101 3.97628C13.8491 3.43199 10.9819 3.92185 8.75192 5.39142C6.31578 6.93357 4.6667 9.54614 4.31065 12.3401C3.91711 15.0979 4.72292 18.0007 6.57813 20.1416C8.35839 22.228 11.0756 23.5343 13.8866 23.625C16.5101 23.7701 19.2461 22.99 21.1575 21.212C22.6567 19.9601 23.35 18.0551 23.5749 16.2046C20.4641 16.2046 17.3534 16.2227 14.2426 16.2046V12.4671H27.3416C28.0162 16.4767 27.0417 20.9943 23.8935 23.8609C21.7947 25.8929 18.89 27.0903 15.9292 27.3262C13.062 27.5983 10.1012 27.0722 7.55259 25.7296C4.49804 24.1512 2.0619 21.4841 0.862565 18.3454C-0.261809 15.4607 -0.280548 12.195 0.768867 9.29214C1.72459 6.64328 3.56106 4.30285 5.92225 2.66999C8.18973 1.05528 10.9445 0.166277 13.7554 0.00299072Z" fill="#4F5A7A"></path><path d="M88.9009 0.946533H92.9111V26.8545C91.5806 26.8545 90.2314 26.8727 88.9009 26.8364C88.9196 18.2185 88.9009 9.58254 88.9009 0.946533Z" fill="#4F5A7A"></path><path d="M36.2616 9.9273C38.7352 9.47373 41.415 9.98173 43.4576 11.415C45.3128 12.685 46.6059 14.6807 46.9994 16.8579C47.5054 19.3797 46.8682 22.1374 45.1817 24.1332C43.3639 26.3647 40.3843 27.5622 37.4797 27.3807C34.8187 27.2356 32.2326 25.9475 30.6585 23.8429C28.8782 21.5206 28.4472 18.3274 29.4217 15.606C30.3961 12.685 33.1509 10.4534 36.2616 9.9273ZM36.8238 13.3744C35.8119 13.6284 34.8749 14.1909 34.2003 14.9892C32.3825 17.0937 32.495 20.5227 34.5001 22.4822C35.6432 23.607 37.3673 24.1332 38.9601 23.8247C40.4405 23.5707 41.7336 22.6092 42.4457 21.3392C43.6825 19.1802 43.3264 16.2047 41.4337 14.5174C40.2157 13.4289 38.4354 12.9753 36.8238 13.3744Z" fill="#4F5A7A"></path><path d="M56.1254 9.92729C58.955 9.40115 62.0471 10.1631 64.1646 12.0863C67.6127 15.0799 67.9875 20.686 65.0454 24.1332C63.2651 26.3103 60.3792 27.5077 57.5308 27.3807C54.8136 27.3082 52.1338 26.0019 50.5222 23.8429C48.7045 21.4662 48.311 18.2004 49.3416 15.4246C50.3723 12.5943 53.0708 10.4353 56.1254 9.92729ZM56.6876 13.3744C55.6756 13.6284 54.7386 14.1909 54.064 14.971C52.265 17.0393 52.34 20.4139 54.2701 22.3914C55.4133 23.5707 57.1935 24.1513 58.8426 23.8247C60.3043 23.5526 61.6161 22.6092 62.3282 21.3392C63.5462 19.162 63.1902 16.1866 61.2787 14.4993C60.0607 13.4107 58.2804 12.9753 56.6876 13.3744Z" fill="#4F5A7A"></path><path d="M72.9724 10.9795C75.1274 9.67324 77.9946 9.31039 80.3183 10.4352C81.0492 10.7437 81.6488 11.2698 82.2297 11.796C82.2485 11.3061 82.2297 10.7981 82.2485 10.2901C83.504 10.3082 84.7596 10.2901 86.0339 10.3082V26.3103C86.0151 28.7233 85.378 31.2814 83.579 33.0413C81.6113 34.9825 78.5943 35.5813 75.877 35.1821C72.9724 34.7648 70.4426 32.7147 69.3182 30.1203C70.4426 29.5941 71.6232 29.1768 72.785 28.687C73.4409 30.1747 74.7714 31.4447 76.4392 31.735C78.107 32.0253 80.0372 31.6261 81.1241 30.2835C82.286 28.9047 82.286 27.0178 82.2297 25.3305C81.3677 26.147 80.3745 26.8727 79.1752 27.1448C76.5704 27.8524 73.7032 26.9815 71.6981 25.2761C69.6742 23.5707 68.4749 20.94 68.5873 18.3274C68.6436 15.3701 70.3676 12.5217 72.9724 10.9795ZM76.8515 13.3018C75.7084 13.4832 74.6402 14.1001 73.9094 14.9528C72.1479 16.9848 72.1479 20.2324 73.9281 22.2281C74.9401 23.4074 76.5704 24.0605 78.1445 23.8973C79.6249 23.7521 80.9929 22.845 81.7238 21.5931C82.9606 19.4704 82.7545 16.5857 81.0866 14.7351C80.056 13.5921 78.4069 13.0297 76.8515 13.3018Z" fill="#4F5A7A"></path><path d="M97.7275 11.9049C99.9763 9.87285 103.443 9.18342 106.329 10.2538C109.065 11.2517 110.808 13.7736 111.689 16.368C107.622 18.0009 103.574 19.6156 99.5078 21.2484C100.07 22.2826 100.932 23.226 102.094 23.607C103.724 24.1694 105.673 23.9699 107.041 22.9176C107.585 22.5184 108.016 21.9923 108.428 21.4843C109.458 22.1556 110.489 22.8087 111.52 23.48C110.058 25.6027 107.603 27.0904 104.961 27.3263C102.038 27.671 98.9269 26.5824 97.0342 24.369C93.9234 20.8856 94.2232 15.0436 97.7275 11.9049ZM99.7327 15.2613C99.0955 16.1503 98.8332 17.2389 98.8519 18.3093C101.569 17.2207 104.286 16.1321 107.004 15.0254C106.554 14.0094 105.467 13.3926 104.361 13.2293C102.581 12.9209 100.726 13.8461 99.7327 15.2613Z" fill="#4F5A7A"></path></g><defs><clipPath id="clip0_2008_1049"><rect width="112" height="36" fill="white"></rect></clipPath></defs></svg> 